<svg xmlns="http://www.w3.org/2000/svg" width="800" height="800" viewBox="0 0 800 800" role="img" aria-label="CHILL & TUNE">
  <defs>
    <linearGradient id="g" x1="0" x2="1" y1="0" y2="1">
      <stop offset="0%" stop-color="#6d28d9"/>
      <stop offset="100%" stop-color="#a855f7"/>
    </linearGradient>
    <filter id="shadow" x="-20%" y="-20%" width="140%" height="140%">
      <feDropShadow dx="0" dy="8" stdDeviation="12" flood-color="#000" flood-opacity="0.3"/>
    </filter>
  </defs>
  <rect x="0" y="0" width="800" height="800" rx="48" fill="url(#g)"/>
  <g filter="url(#shadow)">
    <circle cx="400" cy="320" r="160" fill="none" stroke="#fff" stroke-width="14" stroke-opacity="0.35"/>
    <circle cx="400" cy="320" r="118" fill="none" stroke="#fff" stroke-width="10" stroke-opacity="0.6"/>
    <circle cx="400" cy="320" r="6" fill="#fff"/>
    <path d="M330 500h140c40 0 72 32 72 72v36H258v-36c0-40 32-72 72-72z" fill="#1f1341" fill-opacity="0.35" stroke="#fff" stroke-opacity="0.35" stroke-width="2"/>
    <rect x="280" y="560" width="240" height="20" rx="10" fill="#fff"/>
    <rect x="280" y="590" width="90" height="18" rx="9" fill="#fff" opacity="0.9"/>
    <rect x="430" y="590" width="90" height="18" rx="9" fill="#fff" opacity="0.9"/>
  </g>
  <g>
    <text x="400" y="360" text-anchor="middle" fill="#ffffff" font-family="Inter, system-ui, -apple-system, Segoe UI, Roboto, Helvetica, Arial, sans-serif" font-weight="800" font-size="44" letter-spacing="1.5">CHILL & TUNE</text>
    <text x="400" y="400" text-anchor="middle" fill="#e9d5ff" font-family="Inter, system-ui, -apple-system, Segoe UI, Roboto, Helvetica, Arial, sans-serif" font-weight="600" font-size="18" letter-spacing="3">HIP-HOP • R&B</text>
  </g>
</svg>


